<svg xmlns="http://www.w3.org/2000/svg" xmlns:xlink="http://www.w3.org/1999/xlink" width="500" zoomAndPan="magnify" viewBox="0 0 375 374.999991" height="500" preserveAspectRatio="xMidYMid meet" version="1.0"><defs><g/><clipPath id="a120a2ecc4"><path d="M 30.445312 120 L 142.945312 120 L 142.945312 187.5 L 30.445312 187.5 Z M 30.445312 120 " clip-rule="nonzero"/></clipPath></defs><rect x="-37.5" width="450" fill="#ffffff" y="-37.499999" height="449.999989" fill-opacity="1"/><rect x="-37.5" width="450" fill="#ffffff" y="-37.499999" height="449.999989" fill-opacity="1"/><g clip-path="url(#a120a2ecc4)"><path fill="#000000" d="M 142.878906 142.0625 C 142.359375 143.402344 141.640625 144.664062 140.796875 145.828125 C 139.929688 146.996094 138.9375 148.0625 137.875 149.027344 C 136.78125 149.996094 135.617188 150.863281 134.378906 151.628906 C 133.136719 152.398438 131.875 153.09375 130.5625 153.738281 C 129.246094 154.355469 127.90625 154.878906 126.542969 155.398438 C 125.179688 155.894531 123.816406 156.339844 122.40625 156.738281 C 121.015625 157.132812 119.605469 157.457031 118.167969 157.730469 C 117.445312 157.851562 116.753906 158 116.035156 158.101562 L 113.902344 158.449219 C 108.199219 159.265625 102.425781 159.6875 96.675781 159.585938 C 95.238281 159.585938 93.796875 159.488281 92.359375 159.414062 L 90.203125 159.242188 C 89.484375 159.191406 88.765625 159.066406 88.046875 158.992188 C 85.171875 158.621094 82.320312 158.101562 79.546875 157.332031 L 77.460938 156.6875 C 76.769531 156.464844 76.097656 156.191406 75.40625 155.917969 C 74.066406 155.347656 72.753906 154.679688 71.511719 153.886719 C 69.058594 152.300781 66.925781 150.144531 65.414062 147.613281 C 63.902344 145.0625 63.035156 142.1875 62.761719 139.285156 C 62.613281 137.824219 62.613281 136.359375 62.6875 134.898438 C 62.789062 133.433594 62.984375 132.023438 63.285156 130.558594 C 63.628906 129.097656 64.199219 127.683594 65.117188 126.46875 C 65.5625 125.851562 66.109375 125.304688 66.703125 124.832031 C 66.851562 124.710938 67.003906 124.609375 67.175781 124.488281 L 67.671875 124.1875 L 67.917969 124.039062 C 67.992188 123.992188 68.09375 123.964844 68.167969 123.917969 L 68.6875 123.695312 C 70.125 123.148438 71.664062 123 73.148438 123.125 C 73.519531 123.171875 73.894531 123.199219 74.265625 123.273438 L 74.808594 123.371094 L 75.355469 123.496094 C 76.074219 123.644531 76.792969 123.867188 77.460938 124.113281 C 78.828125 124.636719 80.140625 125.28125 81.402344 125.972656 C 82.667969 126.644531 83.933594 127.335938 85.222656 127.933594 C 86.511719 128.527344 87.847656 129.046875 89.210938 129.394531 C 90.601562 129.71875 92.039062 129.816406 93.453125 129.617188 C 92.039062 129.914062 90.574219 129.914062 89.136719 129.667969 C 87.699219 129.417969 86.335938 128.949219 85 128.402344 C 83.660156 127.859375 82.347656 127.238281 81.058594 126.644531 C 79.769531 126.023438 78.453125 125.476562 77.117188 125.058594 C 76.445312 124.859375 75.777344 124.636719 75.109375 124.488281 L 74.585938 124.363281 L 74.066406 124.261719 C 73.71875 124.1875 73.371094 124.164062 73.050781 124.140625 C 71.6875 124.015625 70.300781 124.164062 69.035156 124.660156 L 68.589844 124.859375 C 68.515625 124.882812 68.441406 124.933594 68.367188 124.957031 L 68.140625 125.082031 L 67.722656 125.328125 C 67.597656 125.429688 67.449219 125.527344 67.324219 125.628906 C 66.804688 126.046875 66.332031 126.519531 65.9375 127.066406 C 65.117188 128.15625 64.597656 129.445312 64.273438 130.78125 C 63.730469 133.535156 63.480469 136.386719 63.78125 139.1875 C 64.050781 141.988281 64.871094 144.714844 66.308594 147.117188 C 67.746094 149.523438 69.753906 151.554688 72.109375 153.066406 C 73.273438 153.835938 74.539062 154.480469 75.828125 155.027344 C 76.472656 155.300781 77.140625 155.546875 77.808594 155.769531 L 79.84375 156.390625 C 82.570312 157.160156 85.371094 157.679688 88.195312 158.027344 C 88.914062 158.101562 89.609375 158.199219 90.328125 158.273438 L 92.460938 158.449219 C 93.875 158.523438 95.3125 158.621094 96.722656 158.621094 C 102.425781 158.746094 108.152344 158.296875 113.804688 157.503906 L 115.910156 157.183594 C 116.605469 157.058594 117.324219 156.933594 118.015625 156.8125 C 119.429688 156.5625 120.792969 156.242188 122.15625 155.84375 C 124.882812 155.078125 127.5625 154.085938 130.140625 152.894531 C 131.453125 152.324219 132.742188 151.730469 133.980469 151.035156 C 135.222656 150.339844 136.410156 149.574219 137.527344 148.679688 C 138.640625 147.789062 139.65625 146.796875 140.574219 145.707031 C 141.46875 144.566406 142.261719 143.351562 142.878906 142.0625 Z M 87.921875 169.503906 C 87.453125 169.554688 87.007812 169.75 86.632812 170.023438 C 86.261719 170.296875 85.941406 170.644531 85.667969 170.992188 C 85.097656 171.734375 84.652344 172.550781 84.355469 173.421875 C 83.710938 175.15625 83.636719 177.015625 83.5625 178.898438 C 83.511719 179.839844 83.386719 180.78125 83.261719 181.75 C 83.113281 182.714844 82.867188 183.683594 82.496094 184.601562 C 82.394531 184.824219 82.296875 185.046875 82.171875 185.269531 C 82.046875 185.492188 81.925781 185.714844 81.75 185.9375 C 81.429688 186.359375 81.007812 186.757812 80.4375 186.980469 C 79.867188 187.203125 79.246094 187.179688 78.726562 186.980469 C 78.207031 186.804688 77.761719 186.507812 77.363281 186.160156 C 76.570312 185.492188 75.976562 184.648438 75.554688 183.730469 C 75.453125 183.507812 75.355469 183.261719 75.28125 183.011719 C 75.207031 182.765625 75.15625 182.542969 75.109375 182.292969 L 74.933594 181.601562 L 74.808594 180.882812 C 74.464844 178.996094 74.316406 177.0625 74.242188 175.179688 C 74.164062 173.296875 74.089844 171.410156 73.867188 169.578125 C 73.644531 167.742188 73.25 165.933594 72.53125 164.222656 L 72.257812 163.605469 L 72.109375 163.28125 L 72.035156 163.132812 C 72.007812 163.082031 71.984375 163.035156 71.960938 163.007812 C 71.761719 162.636719 71.488281 162.316406 71.167969 162.042969 C 70.546875 161.472656 69.730469 161.074219 68.886719 160.777344 C 68.042969 160.480469 67.125 160.308594 66.234375 160.183594 C 65.316406 160.058594 64.425781 160.058594 63.53125 160.183594 C 61.722656 160.382812 59.9375 160.953125 58.152344 161.546875 C 56.367188 162.117188 54.558594 162.734375 52.75 163.304688 C 49.128906 164.421875 45.410156 165.414062 41.570312 165.636719 C 40.601562 165.660156 39.636719 165.636719 38.691406 165.539062 C 37.726562 165.460938 36.785156 165.339844 35.84375 165.140625 C 34.902344 164.941406 33.984375 164.695312 33.089844 164.371094 C 32.199219 164.050781 31.332031 163.652344 30.511719 163.183594 C 32.246094 163.925781 34.082031 164.398438 35.941406 164.621094 C 36.859375 164.742188 37.800781 164.792969 38.742188 164.792969 C 39.683594 164.792969 40.601562 164.742188 41.519531 164.644531 C 45.238281 164.421875 48.882812 163.480469 52.476562 162.363281 C 54.261719 161.792969 56.070312 161.199219 57.855469 160.605469 C 59.640625 160.035156 61.5 159.4375 63.433594 159.214844 C 64.398438 159.09375 65.414062 159.117188 66.382812 159.242188 C 67.347656 159.363281 68.316406 159.5625 69.257812 159.886719 C 70.175781 160.207031 71.117188 160.652344 71.886719 161.347656 C 72.257812 161.695312 72.628906 162.089844 72.875 162.5625 C 72.902344 162.613281 72.953125 162.6875 72.976562 162.734375 L 73.050781 162.910156 L 73.199219 163.230469 L 73.496094 163.902344 C 74.265625 165.6875 74.6875 167.59375 74.910156 169.503906 C 75.132812 171.410156 75.183594 173.320312 75.28125 175.179688 C 75.355469 177.0625 75.503906 178.921875 75.851562 180.734375 L 75.976562 181.425781 L 76.148438 182.097656 C 76.199219 182.320312 76.25 182.566406 76.324219 182.765625 C 76.371094 182.964844 76.472656 183.160156 76.546875 183.359375 C 76.917969 184.152344 77.4375 184.898438 78.082031 185.441406 C 78.726562 186.011719 79.546875 186.335938 80.191406 186.085938 C 80.511719 185.964844 80.808594 185.691406 81.058594 185.367188 C 81.179688 185.195312 81.28125 185.019531 81.402344 184.824219 C 81.503906 184.625 81.601562 184.425781 81.675781 184.226562 C 82.023438 183.410156 82.246094 182.515625 82.394531 181.625 C 82.542969 180.707031 82.59375 179.789062 82.691406 178.847656 C 82.792969 177.90625 82.917969 176.964844 83.089844 176.023438 C 83.289062 175.082031 83.535156 174.140625 83.957031 173.246094 C 84.378906 172.378906 84.898438 171.5625 85.570312 170.84375 C 85.890625 170.496094 86.261719 170.171875 86.683594 169.925781 C 86.957031 169.652344 87.453125 169.503906 87.921875 169.503906 Z M 86.558594 166.554688 C 87.578125 165.835938 88.914062 165.613281 90.179688 165.835938 C 91.445312 166.058594 92.632812 166.652344 93.550781 167.59375 C 94.46875 168.511719 95.113281 169.652344 95.558594 170.84375 C 96.003906 172.03125 96.277344 173.296875 96.476562 174.535156 C 96.675781 175.773438 96.75 177.015625 96.898438 178.253906 C 97.046875 179.46875 97.195312 180.683594 97.492188 181.847656 C 97.789062 183.011719 98.234375 184.128906 98.855469 185.121094 C 99.179688 185.589844 99.550781 186.039062 99.972656 186.308594 C 100.390625 186.582031 100.863281 186.65625 101.308594 186.457031 C 101.757812 186.285156 102.175781 185.890625 102.5 185.441406 C 102.847656 184.996094 103.121094 184.476562 103.316406 183.929688 C 103.539062 183.386719 103.691406 182.839844 103.8125 182.21875 C 103.9375 181.625 104.035156 181.03125 104.109375 180.410156 C 104.183594 179.816406 104.234375 179.195312 104.257812 178.601562 C 104.285156 178.304688 104.285156 178.007812 104.285156 177.683594 L 104.285156 176.765625 C 104.285156 176.148438 104.285156 175.503906 104.332031 174.882812 C 104.359375 174.558594 104.359375 174.261719 104.382812 173.941406 L 104.484375 173 C 104.730469 170.496094 105.226562 168.015625 105.894531 165.613281 C 106.566406 163.207031 107.359375 160.828125 108.226562 158.496094 C 109.960938 153.835938 111.894531 149.25 113.355469 144.539062 C 114.101562 142.1875 114.695312 139.804688 115.066406 137.378906 C 115.167969 136.78125 115.242188 136.164062 115.316406 135.566406 C 115.390625 134.949219 115.414062 134.351562 115.464844 133.734375 C 115.515625 132.519531 115.539062 131.277344 115.4375 130.0625 L 115.390625 129.148438 C 115.363281 128.851562 115.339844 128.550781 115.289062 128.253906 C 115.214844 127.660156 115.09375 127.066406 114.945312 126.496094 C 114.792969 125.925781 114.621094 125.355469 114.375 124.808594 C 114.125 124.265625 113.851562 123.742188 113.503906 123.296875 C 113.160156 122.824219 112.761719 122.429688 112.316406 122.082031 C 112.066406 121.933594 111.84375 121.761719 111.597656 121.660156 C 111.347656 121.511719 111.078125 121.4375 110.804688 121.339844 C 109.714844 121.015625 108.5 121.066406 107.308594 121.191406 C 104.902344 121.339844 102.574219 122.179688 100.34375 123.246094 C 99.226562 123.769531 98.136719 124.363281 97.019531 124.933594 C 95.90625 125.503906 94.789062 126.046875 93.648438 126.542969 C 94.742188 125.972656 95.804688 125.328125 96.871094 124.683594 C 97.9375 124.039062 99.003906 123.394531 100.09375 122.777344 C 101.1875 122.15625 102.300781 121.609375 103.492188 121.140625 C 104.65625 120.667969 105.894531 120.320312 107.160156 120.125 C 107.78125 120.023438 108.449219 120 109.09375 120 C 109.738281 120.023438 110.40625 120.097656 111.050781 120.296875 C 111.375 120.398438 111.695312 120.519531 111.992188 120.667969 C 112.316406 120.816406 112.589844 120.992188 112.863281 121.191406 C 113.40625 121.585938 113.878906 122.082031 114.273438 122.628906 C 114.671875 123.148438 114.96875 123.742188 115.242188 124.339844 C 115.515625 124.933594 115.710938 125.550781 115.859375 126.171875 C 116.035156 126.792969 116.132812 127.410156 116.234375 128.054688 C 116.28125 128.378906 116.308594 128.675781 116.355469 129 L 116.429688 129.941406 C 116.53125 131.203125 116.503906 132.46875 116.457031 133.707031 C 116.40625 134.328125 116.382812 134.972656 116.308594 135.59375 C 116.234375 136.210938 116.160156 136.832031 116.058594 137.453125 C 115.664062 139.929688 115.066406 142.382812 114.324219 144.765625 C 112.835938 149.546875 110.878906 154.132812 109.167969 158.769531 C 108.300781 161.101562 107.507812 163.429688 106.863281 165.808594 C 106.21875 168.191406 105.722656 170.59375 105.472656 173.023438 L 105.398438 173.941406 C 105.375 174.238281 105.375 174.558594 105.351562 174.859375 C 105.300781 175.476562 105.324219 176.074219 105.300781 176.691406 L 105.300781 177.632812 C 105.300781 177.957031 105.300781 178.277344 105.277344 178.574219 C 105.25 179.21875 105.203125 179.839844 105.101562 180.460938 C 105.027344 181.078125 104.929688 181.722656 104.804688 182.34375 C 104.679688 182.964844 104.507812 183.609375 104.257812 184.226562 C 104.011719 184.847656 103.714844 185.417969 103.316406 185.964844 C 102.921875 186.507812 102.402344 187.027344 101.707031 187.300781 C 101.359375 187.449219 100.9375 187.5 100.542969 187.449219 C 100.144531 187.402344 99.773438 187.253906 99.476562 187.054688 C 98.855469 186.65625 98.433594 186.113281 98.0625 185.566406 C 97.34375 184.476562 96.871094 183.238281 96.550781 181.996094 C 96.226562 180.757812 96.054688 179.492188 95.929688 178.253906 C 95.804688 177.015625 95.65625 175.773438 95.507812 174.558594 C 95.386719 173.34375 95.1875 172.132812 94.839844 170.992188 C 94.492188 169.851562 93.949219 168.757812 93.152344 167.84375 C 92.386719 166.949219 91.296875 166.304688 90.128906 166.007812 C 88.941406 165.808594 87.652344 165.882812 86.558594 166.554688 Z M 78.378906 135.195312 C 80.117188 136.335938 81.898438 137.277344 83.757812 137.996094 C 84.703125 138.34375 85.617188 138.640625 86.585938 138.839844 C 87.527344 139.039062 88.492188 139.160156 89.460938 139.1875 C 90.425781 139.210938 91.371094 139.113281 92.335938 138.964844 C 93.304688 138.816406 94.21875 138.492188 95.136719 138.171875 C 96.972656 137.453125 98.707031 136.410156 100.417969 135.21875 L 100.492188 135.292969 C 99.003906 136.734375 97.34375 137.972656 95.460938 138.863281 C 94.519531 139.285156 93.550781 139.65625 92.535156 139.878906 C 91.519531 140.105469 90.476562 140.203125 89.4375 140.203125 C 87.355469 140.128906 85.320312 139.609375 83.4375 138.742188 C 81.554688 137.871094 79.816406 136.734375 78.304688 135.292969 Z M 78.378906 135.195312 " fill-opacity="1" fill-rule="nonzero"/></g><g fill="#000000" fill-opacity="1"><g transform="translate(117.223305, 150.96029)"><g><path d="M 2.875 0 L 2.875 -36.671875 L 10.453125 -36.671875 C 17.503906 -36.671875 22.910156 -35.054688 26.671875 -31.828125 C 30.441406 -28.609375 32.328125 -24.125 32.328125 -18.375 C 32.328125 -12.8125 30.441406 -8.359375 26.671875 -5.015625 C 22.910156 -1.671875 17.503906 0 10.453125 0 Z M 7.296875 -0.703125 L 10.453125 -0.703125 C 15.921875 -0.703125 20.078125 -2.253906 22.921875 -5.359375 C 25.773438 -8.472656 27.203125 -12.925781 27.203125 -18.71875 C 27.203125 -23.019531 26.5 -26.429688 25.09375 -28.953125 C 23.695312 -31.484375 21.734375 -33.285156 19.203125 -34.359375 C 16.679688 -35.429688 13.765625 -35.96875 10.453125 -35.96875 L 7.296875 -35.96875 Z M 7.296875 -0.703125 "/></g></g></g><g fill="#000000" fill-opacity="1"><g transform="translate(163.788213, 150.96029)"><g><path d="M 13.75 0.5625 C 10.195312 0.5625 7.34375 -0.453125 5.1875 -2.484375 C 3.039062 -4.523438 1.894531 -7.203125 1.75 -10.515625 C 1.75 -12.992188 2.273438 -15.15625 3.328125 -17 C 4.378906 -18.851562 5.78125 -20.289062 7.53125 -21.3125 C 9.289062 -22.34375 11.242188 -22.859375 13.390625 -22.859375 C 15.359375 -22.859375 17.144531 -22.332031 18.75 -21.28125 C 20.363281 -20.226562 21.648438 -18.78125 22.609375 -16.9375 C 23.566406 -15.09375 24.046875 -13 24.046875 -10.65625 L 6.875 -10.65625 C 6.96875 -6.6875 7.585938 -3.941406 8.734375 -2.421875 C 9.878906 -0.898438 11.429688 -0.140625 13.390625 -0.140625 C 15.023438 -0.140625 16.648438 -0.535156 18.265625 -1.328125 C 19.878906 -2.128906 21.203125 -3.648438 22.234375 -5.890625 L 23 -5.75 C 22.113281 -3.832031 20.863281 -2.300781 19.25 -1.15625 C 17.632812 -0.0078125 15.800781 0.5625 13.75 0.5625 Z M 6.875 -11.359375 L 18.9375 -11.359375 C 18.84375 -18.554688 16.992188 -22.15625 13.390625 -22.15625 C 11.003906 -22.15625 9.320312 -21.253906 8.34375 -19.453125 C 7.363281 -17.660156 6.875 -14.960938 6.875 -11.359375 Z M 6.875 -11.359375 "/></g></g></g><g fill="#000000" fill-opacity="1"><g transform="translate(202.779628, 150.96029)"><g><path d="M 9.671875 0.5625 C 7.285156 0.5625 5.671875 -0.0664062 4.828125 -1.328125 C 3.992188 -2.585938 3.578125 -4.363281 3.578125 -6.65625 L 3.578125 -21.453125 L -0.421875 -21.453125 L -0.421875 -22.15625 L 3.578125 -22.15625 L 3.578125 -29.234375 L 8 -29.234375 L 8 -22.15625 L 15 -22.15625 L 15 -21.453125 L 8 -21.453125 L 8 -5.46875 C 8 -4.207031 8.160156 -3.023438 8.484375 -1.921875 C 8.804688 -0.828125 9.4375 -0.28125 10.375 -0.28125 C 11.40625 -0.28125 12.328125 -0.722656 13.140625 -1.609375 C 13.960938 -2.492188 14.535156 -3.523438 14.859375 -4.703125 L 15.5 -4.484375 C 15.125 -2.992188 14.382812 -1.78125 13.28125 -0.84375 C 12.1875 0.09375 10.984375 0.5625 9.671875 0.5625 Z M 9.671875 0.5625 "/></g></g></g><g fill="#000000" fill-opacity="1"><g transform="translate(232.163934, 150.96029)"><g><path d="M 2.875 0 L 2.875 -36.671875 L 7.296875 -36.671875 L 7.296875 0 Z M 2.875 0 "/></g></g></g><g fill="#000000" fill-opacity="1"><g transform="translate(255.51749, 150.96029)"><g><path d="M 10.515625 0.5625 C 7.847656 0.5625 5.789062 -0.148438 4.34375 -1.578125 C 2.894531 -3.003906 2.171875 -5.285156 2.171875 -8.421875 L 2.171875 -22.15625 L 6.453125 -22.15625 L 6.453125 -6.875 C 6.453125 -5.800781 6.554688 -4.75 6.765625 -3.71875 C 6.972656 -2.6875 7.359375 -1.832031 7.921875 -1.15625 C 8.484375 -0.476562 9.347656 -0.140625 10.515625 -0.140625 C 11.773438 -0.140625 12.882812 -0.476562 13.84375 -1.15625 C 14.800781 -1.832031 15.585938 -2.707031 16.203125 -3.78125 L 16.203125 -22.15625 L 20.609375 -22.15625 L 20.609375 0 L 16.203125 0 L 16.203125 -2.59375 C 15.546875 -1.65625 14.738281 -0.894531 13.78125 -0.3125 C 12.820312 0.269531 11.734375 0.5625 10.515625 0.5625 Z M 10.515625 0.5625 "/></g></g></g><g fill="#000000" fill-opacity="1"><g transform="translate(292.194783, 150.96029)"><g><path d="M 1.328125 0 L 8.828125 -10.09375 L 0.703125 -22.15625 L 6.03125 -22.15625 L 11.640625 -13.890625 L 17.8125 -22.15625 L 18.65625 -22.15625 L 12.0625 -13.25 L 21.03125 0 L 15.703125 0 L 9.25 -9.53125 L 2.171875 0 Z M 1.328125 0 "/></g></g></g><g fill="#000000" fill-opacity="1"><g transform="translate(136.857067, 183.998909)"><g><path d="M 0.34375 0 L 6.484375 -16.109375 L 7.453125 -18.71875 L 7.84375 -18.71875 L 14.953125 0 L 12.578125 0 L 9.71875 -7.5 L 3.5625 -7.5 L 0.703125 0 Z M 3.6875 -7.84375 L 9.625 -7.84375 L 6.65625 -15.609375 Z M 3.6875 -7.84375 "/></g></g></g><g fill="#000000" fill-opacity="1"><g transform="translate(160.312981, 183.998909)"><g><path d="M 9.828125 0.28125 C 8.015625 0.28125 6.441406 -0.113281 5.109375 -0.90625 C 3.773438 -1.695312 2.734375 -2.800781 1.984375 -4.21875 C 1.242188 -5.632812 0.875 -7.273438 0.875 -9.140625 C 0.875 -10.992188 1.296875 -12.625 2.140625 -14.03125 C 2.992188 -15.4375 4.097656 -16.535156 5.453125 -17.328125 C 6.816406 -18.117188 8.273438 -18.515625 9.828125 -18.515625 C 10.753906 -18.515625 11.707031 -18.378906 12.6875 -18.109375 C 13.664062 -17.835938 14.445312 -17.351562 15.03125 -16.65625 C 15.414062 -16.21875 15.554688 -15.800781 15.453125 -15.40625 C 15.347656 -15.007812 15.097656 -14.734375 14.703125 -14.578125 C 14.242188 -14.410156 13.847656 -14.484375 13.515625 -14.796875 C 13.191406 -15.109375 13.03125 -15.488281 13.03125 -15.9375 C 13.03125 -16.675781 12.722656 -17.226562 12.109375 -17.59375 C 11.492188 -17.96875 10.734375 -18.15625 9.828125 -18.15625 C 9.066406 -18.15625 8.304688 -18.015625 7.546875 -17.734375 C 6.796875 -17.460938 6.109375 -16.988281 5.484375 -16.3125 C 4.867188 -15.632812 4.375 -14.734375 4 -13.609375 C 3.632812 -12.484375 3.453125 -11.0625 3.453125 -9.34375 C 3.453125 -7.0625 3.75 -5.242188 4.34375 -3.890625 C 4.9375 -2.546875 5.695312 -1.578125 6.625 -0.984375 C 7.550781 -0.398438 8.523438 -0.109375 9.546875 -0.109375 C 10.390625 -0.109375 11.203125 -0.238281 11.984375 -0.5 C 12.773438 -0.769531 13.476562 -1.253906 14.09375 -1.953125 C 14.71875 -2.648438 15.179688 -3.640625 15.484375 -4.921875 L 15.859375 -4.84375 C 15.460938 -3.164062 14.75 -1.890625 13.71875 -1.015625 C 12.6875 -0.148438 11.390625 0.28125 9.828125 0.28125 Z M 9.828125 0.28125 "/></g></g></g><g fill="#000000" fill-opacity="1"><g transform="translate(185.197806, 183.998909)"><g><path d="M 0.34375 0 L 6.484375 -16.109375 L 7.453125 -18.71875 L 7.84375 -18.71875 L 14.953125 0 L 12.578125 0 L 9.71875 -7.5 L 3.5625 -7.5 L 0.703125 0 Z M 3.6875 -7.84375 L 9.625 -7.84375 L 6.65625 -15.609375 Z M 3.6875 -7.84375 "/></g></g></g><g fill="#000000" fill-opacity="1"><g transform="translate(208.653723, 183.998909)"><g><path d="M 1.421875 0 L 1.421875 -18.234375 L 3.625 -18.234375 L 9.03125 -3.0625 L 14.5 -18.234375 L 16.703125 -18.234375 L 16.703125 0 L 14.5 0 L 14.5 -17.359375 L 9.203125 -2.609375 L 8.296875 0 L 7.953125 0 L 1.78125 -17.25 L 1.78125 0 Z M 1.421875 0 "/></g></g></g><g fill="#000000" fill-opacity="1"><g transform="translate(234.932606, 183.998909)"><g><path d="M 1.421875 0 L 1.421875 -18.234375 L 11.5 -18.234375 L 11.5 -17.890625 L 3.625 -17.890625 L 3.625 -9.9375 L 8.640625 -9.9375 L 8.640625 -9.546875 L 3.625 -9.546875 L 3.625 -0.34375 L 11.5 -0.34375 L 11.5 0 Z M 1.421875 0 "/></g></g></g><g fill="#000000" fill-opacity="1"><g transform="translate(255.321582, 183.998909)"><g><path d="M 1.421875 0 L 1.421875 -18.234375 L 5.1875 -18.234375 C 8.695312 -18.234375 11.382812 -17.429688 13.25 -15.828125 C 15.125 -14.222656 16.0625 -11.992188 16.0625 -9.140625 C 16.0625 -6.367188 15.125 -4.148438 13.25 -2.484375 C 11.382812 -0.828125 8.695312 0 5.1875 0 Z M 3.625 -0.34375 L 5.1875 -0.34375 C 7.90625 -0.34375 9.972656 -1.113281 11.390625 -2.65625 C 12.816406 -4.207031 13.53125 -6.425781 13.53125 -9.3125 C 13.53125 -11.445312 13.179688 -13.140625 12.484375 -14.390625 C 11.785156 -15.648438 10.804688 -16.546875 9.546875 -17.078125 C 8.296875 -17.617188 6.84375 -17.890625 5.1875 -17.890625 L 3.625 -17.890625 Z M 3.625 -0.34375 "/></g></g></g><g fill="#000000" fill-opacity="1"><g transform="translate(280.067003, 183.998909)"><g><path d="M 6.453125 0 L 6.453125 -7.734375 L 0.34375 -18.234375 L 2.96875 -18.234375 L 8.4375 -8.6875 L 13.53125 -18.234375 L 13.90625 -18.234375 L 8.640625 -8.328125 L 8.640625 0 Z M 6.453125 0 "/></g></g></g></svg>