<svg xmlns="http://www.w3.org/2000/svg" xmlns:xlink="http://www.w3.org/1999/xlink" width="500" zoomAndPan="magnify" viewBox="0 0 375 374.999991" height="500" preserveAspectRatio="xMidYMid meet" version="1.0"><defs><g/><clipPath id="7b11aad6a3"><path d="M 147 73.445312 L 228 73.445312 L 228 213.695312 L 147 213.695312 Z M 147 73.445312 " clip-rule="nonzero"/></clipPath></defs><rect x="-37.5" width="450" fill="#ffffff" y="-37.499999" height="449.999989" fill-opacity="1"/><rect x="-37.5" width="450" fill="#ffffff" y="-37.499999" height="449.999989" fill-opacity="1"/><g fill="#000000" fill-opacity="1"><g transform="translate(76.008033, 259.68399)"><g><path d="M 9.15625 7.71875 C 6.28125 7.71875 4.097656 7.128906 2.609375 5.953125 C 1.128906 4.773438 0.566406 3.226562 0.921875 1.3125 C 1.359375 -0.875 2.925781 -3.234375 5.625 -5.765625 C 8.332031 -8.296875 11.910156 -10.429688 16.359375 -12.171875 C 18.453125 -14.878906 20.71875 -17.738281 23.15625 -20.75 C 25.601562 -23.757812 28.050781 -26.640625 30.5 -29.390625 C 32.945312 -32.140625 35.21875 -34.472656 37.3125 -36.390625 C 37.476562 -36.566406 37.648438 -36.65625 37.828125 -36.65625 C 38.359375 -36.65625 38.625 -36.394531 38.625 -35.875 C 38.625 -35.695312 38.535156 -35.519531 38.359375 -35.34375 C 35.472656 -32.632812 32.285156 -29.207031 28.796875 -25.0625 C 25.304688 -20.914062 22.035156 -16.925781 18.984375 -13.09375 C 21.078125 -13.789062 23.320312 -14.3125 25.71875 -14.65625 C 28.125 -15.007812 30.675781 -15.1875 33.375 -15.1875 C 34.863281 -15.1875 36.328125 -15.140625 37.765625 -15.046875 C 39.203125 -14.960938 40.617188 -14.789062 42.015625 -14.53125 C 42.453125 -14.351562 42.671875 -14.09375 42.671875 -13.75 C 42.671875 -13.21875 42.410156 -12.953125 41.890625 -12.953125 L 41.765625 -12.953125 C 39.054688 -13.484375 36.257812 -13.75 33.375 -13.75 C 30.414062 -13.75 27.582031 -13.507812 24.875 -13.03125 C 22.164062 -12.550781 19.675781 -11.875 17.40625 -11 C 15.40625 -8.375 13.679688 -6.035156 12.234375 -3.984375 C 10.796875 -1.941406 9.859375 -0.484375 9.421875 0.390625 C 9.160156 0.648438 8.941406 0.78125 8.765625 0.78125 C 8.242188 0.78125 7.984375 0.519531 7.984375 0 C 7.984375 -0.175781 8.023438 -0.304688 8.109375 -0.390625 C 8.546875 -1.085938 9.332031 -2.285156 10.46875 -3.984375 C 11.601562 -5.691406 13 -7.632812 14.65625 -9.8125 C 11.082031 -8.15625 8.222656 -6.28125 6.078125 -4.1875 C 3.941406 -2.09375 2.703125 -0.171875 2.359375 1.578125 C 1.835938 4.628906 4.101562 6.15625 9.15625 6.15625 C 13.875 6.15625 18.71875 5.019531 23.6875 2.75 C 28.664062 0.476562 33.359375 -2.550781 37.765625 -6.34375 C 42.171875 -10.144531 45.898438 -14.378906 48.953125 -19.046875 C 52.015625 -23.710938 53.9375 -28.445312 54.71875 -33.25 C 55.332031 -36.21875 54.832031 -38.53125 53.21875 -40.1875 C 51.601562 -41.84375 49.132812 -42.671875 45.8125 -42.671875 C 41.882812 -42.671875 37.957031 -41.925781 34.03125 -40.4375 C 30.101562 -38.957031 26.394531 -37.0625 22.90625 -34.75 C 19.414062 -32.4375 16.273438 -29.945312 13.484375 -27.28125 C 10.691406 -24.625 8.507812 -22.117188 6.9375 -19.765625 C 6.851562 -19.503906 6.632812 -19.375 6.28125 -19.375 C 5.757812 -19.375 5.5 -19.632812 5.5 -20.15625 C 5.5 -20.25 5.519531 -20.335938 5.5625 -20.421875 C 5.601562 -20.503906 5.625 -20.546875 5.625 -20.546875 C 7.28125 -22.910156 9.523438 -25.460938 12.359375 -28.203125 C 15.203125 -30.953125 18.429688 -33.523438 22.046875 -35.921875 C 25.671875 -38.328125 29.535156 -40.289062 33.640625 -41.8125 C 37.742188 -43.34375 41.800781 -44.109375 45.8125 -44.109375 C 49.65625 -44.109375 52.515625 -43.125 54.390625 -41.15625 C 56.265625 -39.195312 56.898438 -36.472656 56.296875 -32.984375 C 55.421875 -28.015625 53.410156 -23.128906 50.265625 -18.328125 C 47.128906 -13.523438 43.289062 -9.160156 38.75 -5.234375 C 34.207031 -1.304688 29.363281 1.832031 24.21875 4.1875 C 19.070312 6.539062 14.050781 7.71875 9.15625 7.71875 Z M 9.15625 7.71875 "/></g></g></g><g fill="#000000" fill-opacity="1"><g transform="translate(130.463385, 259.68399)"><g><path d="M 4.3125 0.390625 C 2.394531 0.390625 0.894531 0.0390625 -0.1875 -0.65625 C -1.28125 -1.351562 -1.828125 -2.359375 -1.828125 -3.671875 C -1.828125 -5.148438 -1.21875 -6.71875 0 -8.375 C 1.21875 -10.03125 2.675781 -11.46875 4.375 -12.6875 C 6.082031 -13.914062 7.632812 -14.53125 9.03125 -14.53125 C 10.601562 -14.53125 11.390625 -13.832031 11.390625 -12.4375 C 11.390625 -11.5625 10.800781 -10.726562 9.625 -9.9375 C 8.445312 -9.15625 7.242188 -8.765625 6.015625 -8.765625 C 4.535156 -8.765625 3.445312 -8.941406 2.75 -9.296875 C 1.875 -8.421875 1.148438 -7.476562 0.578125 -6.46875 C 0.015625 -5.46875 -0.265625 -4.535156 -0.265625 -3.671875 C -0.265625 -2.003906 1.257812 -1.171875 4.3125 -1.171875 C 5.625 -1.171875 7.675781 -1.5625 10.46875 -2.34375 C 13.257812 -3.132812 16.378906 -4.269531 19.828125 -5.75 C 23.273438 -7.238281 26.484375 -9.078125 29.453125 -11.265625 C 29.535156 -11.347656 29.664062 -11.390625 29.84375 -11.390625 C 30.363281 -11.390625 30.625 -11.171875 30.625 -10.734375 C 30.625 -10.472656 30.492188 -10.253906 30.234375 -10.078125 C 27.179688 -7.804688 23.910156 -5.882812 20.421875 -4.3125 C 16.929688 -2.75 13.722656 -1.570312 10.796875 -0.78125 C 7.878906 0 5.71875 0.390625 4.3125 0.390625 Z M 6.015625 -10.203125 C 6.710938 -10.203125 7.539062 -10.484375 8.5 -11.046875 C 9.46875 -11.617188 9.953125 -12.082031 9.953125 -12.4375 C 9.953125 -12.78125 9.644531 -12.953125 9.03125 -12.953125 C 8.25 -12.953125 7.421875 -12.710938 6.546875 -12.234375 C 5.671875 -11.753906 4.796875 -11.164062 3.921875 -10.46875 C 4.179688 -10.382812 4.484375 -10.316406 4.828125 -10.265625 C 5.179688 -10.222656 5.578125 -10.203125 6.015625 -10.203125 Z M 6.015625 -10.203125 "/></g></g></g><g fill="#000000" fill-opacity="1"><g transform="translate(157.298349, 259.68399)"><g><path d="M -3.671875 0 C -4.535156 0 -4.882812 -0.476562 -4.71875 -1.4375 C -4.625 -1.875 -4.078125 -2.8125 -3.078125 -4.25 C -2.078125 -5.695312 -0.789062 -7.359375 0.78125 -9.234375 C 2.351562 -11.109375 4.078125 -13.023438 5.953125 -14.984375 C 7.828125 -16.953125 9.726562 -18.632812 11.65625 -20.03125 C 11.738281 -20.113281 11.910156 -20.15625 12.171875 -20.15625 C 12.609375 -20.15625 12.828125 -19.9375 12.828125 -19.5 C 12.828125 -19.238281 12.738281 -19.019531 12.5625 -18.84375 C 9.945312 -16.925781 7.375 -14.523438 4.84375 -11.640625 C 2.3125 -8.765625 0.304688 -6.320312 -1.171875 -4.3125 C -1.265625 -4.144531 -1.285156 -3.972656 -1.234375 -3.796875 C -1.191406 -3.617188 -1 -3.617188 -0.65625 -3.796875 C 9.46875 -11.128906 16.101562 -14.796875 19.25 -14.796875 C 20.644531 -14.796875 21.34375 -14.179688 21.34375 -12.953125 C 21.34375 -12.347656 21.234375 -11.5625 21.015625 -10.59375 C 20.796875 -9.632812 20.597656 -8.675781 20.421875 -7.71875 C 19.898438 -6.0625 19.640625 -4.796875 19.640625 -3.921875 C 19.640625 -3.222656 20.117188 -2.875 21.078125 -2.875 C 23.253906 -2.875 26.175781 -3.640625 29.84375 -5.171875 C 33.507812 -6.703125 37.304688 -8.773438 41.234375 -11.390625 L 41.625 -11.390625 C 42.144531 -11.390625 42.40625 -11.171875 42.40625 -10.734375 C 42.40625 -10.472656 42.273438 -10.253906 42.015625 -10.078125 C 38.003906 -7.460938 34.097656 -5.367188 30.296875 -3.796875 C 26.503906 -2.222656 23.429688 -1.4375 21.078125 -1.4375 C 19.066406 -1.4375 18.0625 -2.265625 18.0625 -3.921875 C 18.0625 -4.359375 18.148438 -4.945312 18.328125 -5.6875 C 18.503906 -6.4375 18.675781 -7.242188 18.84375 -8.109375 C 19.113281 -9.078125 19.351562 -9.992188 19.5625 -10.859375 C 19.78125 -11.734375 19.890625 -12.347656 19.890625 -12.703125 C 19.890625 -13.140625 19.675781 -13.359375 19.25 -13.359375 C 17.851562 -13.359375 15.929688 -12.679688 13.484375 -11.328125 C 11.035156 -9.972656 8.546875 -8.398438 6.015625 -6.609375 C 3.484375 -4.816406 1.347656 -3.3125 -0.390625 -2.09375 C -1.179688 -1.570312 -1.859375 -1.09375 -2.421875 -0.65625 C -2.984375 -0.21875 -3.398438 0 -3.671875 0 Z M -3.671875 0 "/></g></g></g><g fill="#000000" fill-opacity="1"><g transform="translate(195.914521, 259.68399)"><g><path d="M -27.625 33.25 C -28.40625 33.25 -28.664062 32.8125 -28.40625 31.9375 L -28.28125 31.8125 C -28.1875 31.632812 -28.117188 31.476562 -28.078125 31.34375 C -28.035156 31.21875 -27.972656 31.113281 -27.890625 31.03125 C -21.597656 21.164062 -14.585938 11.171875 -6.859375 1.046875 C 0.859375 -9.078125 8.816406 -18.984375 17.015625 -28.671875 C 11.429688 -28.410156 5.953125 -28.0625 0.578125 -27.625 C -4.785156 -27.1875 -9.910156 -26.617188 -14.796875 -25.921875 L -14.921875 -25.921875 C -15.441406 -25.921875 -15.703125 -26.179688 -15.703125 -26.703125 C -15.703125 -27.054688 -15.484375 -27.316406 -15.046875 -27.484375 C -9.898438 -28.179688 -4.515625 -28.75 1.109375 -29.1875 C 6.742188 -29.625 12.484375 -29.929688 18.328125 -30.109375 C 21.992188 -34.472656 25.679688 -38.726562 29.390625 -42.875 C 33.097656 -47.019531 36.785156 -51.097656 40.453125 -55.109375 C 40.628906 -55.285156 40.800781 -55.375 40.96875 -55.375 C 41.5 -55.375 41.765625 -55.113281 41.765625 -54.59375 C 41.765625 -54.320312 41.71875 -54.144531 41.625 -54.0625 C 38.132812 -50.3125 34.617188 -46.425781 31.078125 -42.40625 C 27.546875 -38.394531 23.992188 -34.335938 20.421875 -30.234375 C 31.421875 -30.671875 42.375 -30.671875 53.28125 -30.234375 C 53.71875 -30.234375 53.9375 -29.972656 53.9375 -29.453125 C 53.9375 -29.015625 53.671875 -28.796875 53.140625 -28.796875 C 47.554688 -28.972656 41.882812 -29.0625 36.125 -29.0625 C 30.363281 -29.0625 24.648438 -28.929688 18.984375 -28.671875 C 10.867188 -19.160156 2.972656 -9.410156 -4.703125 0.578125 C -12.390625 10.578125 -19.332031 20.460938 -25.53125 30.234375 C -25.175781 30.410156 -25.175781 30.71875 -25.53125 31.15625 C -25.875 31.675781 -26.21875 32.15625 -26.5625 32.59375 C -26.914062 33.03125 -27.269531 33.25 -27.625 33.25 Z M -27.625 33.25 "/></g></g></g><g fill="#000000" fill-opacity="1"><g transform="translate(215.418963, 259.68399)"><g><path d="M 17.671875 0.125 C 14.523438 0.125 12.953125 -1.179688 12.953125 -3.796875 C 12.953125 -5.109375 13.300781 -6.460938 14 -7.859375 C 14.695312 -9.253906 15.441406 -10.519531 16.234375 -11.65625 C 16.410156 -11.820312 16.453125 -11.945312 16.359375 -12.03125 C 16.273438 -12.125 16.144531 -12.082031 15.96875 -11.90625 C 15.351562 -11.5625 14.484375 -10.953125 13.359375 -10.078125 C 11.523438 -8.765625 9.492188 -7.34375 7.265625 -5.8125 C 5.035156 -4.289062 2.914062 -2.960938 0.90625 -1.828125 C -1.09375 -0.691406 -2.703125 -0.125 -3.921875 -0.125 C -5.492188 -0.125 -6.28125 -0.820312 -6.28125 -2.21875 C -6.28125 -3.351562 -5.671875 -4.597656 -4.453125 -5.953125 C -3.234375 -7.304688 -1.707031 -8.59375 0.125 -9.8125 C 1.957031 -11.039062 3.769531 -12.046875 5.5625 -12.828125 C 7.351562 -13.609375 8.816406 -14 9.953125 -14 C 11.691406 -14 12.910156 -13.347656 13.609375 -12.046875 C 16.398438 -14.140625 18.0625 -15.1875 18.59375 -15.1875 C 19.195312 -15.1875 19.5 -14.878906 19.5 -14.265625 C 19.5 -13.921875 19.019531 -13.050781 18.0625 -11.65625 C 17.28125 -10.519531 16.472656 -9.226562 15.640625 -7.78125 C 14.816406 -6.34375 14.40625 -5.015625 14.40625 -3.796875 C 14.40625 -2.222656 15.492188 -1.4375 17.671875 -1.4375 C 19.066406 -1.4375 21.117188 -1.875 23.828125 -2.75 C 26.535156 -3.625 29.414062 -4.800781 32.46875 -6.28125 C 35.519531 -7.769531 38.269531 -9.429688 40.71875 -11.265625 C 40.800781 -11.347656 40.972656 -11.390625 41.234375 -11.390625 C 41.671875 -11.390625 41.890625 -11.171875 41.890625 -10.734375 C 41.890625 -10.472656 41.800781 -10.253906 41.625 -10.078125 C 39.1875 -8.335938 36.394531 -6.679688 33.25 -5.109375 C 30.101562 -3.535156 27.113281 -2.269531 24.28125 -1.3125 C 21.445312 -0.351562 19.242188 0.125 17.671875 0.125 Z M -3.921875 -1.703125 C -2.878906 -1.703125 -1.421875 -2.222656 0.453125 -3.265625 C 2.328125 -4.316406 4.332031 -5.582031 6.46875 -7.0625 C 8.613281 -8.550781 10.5625 -9.953125 12.3125 -11.265625 C 11.875 -12.128906 11.085938 -12.5625 9.953125 -12.5625 C 8.816406 -12.5625 7.414062 -12.191406 5.75 -11.453125 C 4.09375 -10.710938 2.457031 -9.753906 0.84375 -8.578125 C -0.769531 -7.398438 -2.117188 -6.242188 -3.203125 -5.109375 C -4.296875 -3.972656 -4.84375 -3.007812 -4.84375 -2.21875 C -4.84375 -1.875 -4.535156 -1.703125 -3.921875 -1.703125 Z M -3.921875 -1.703125 "/></g></g></g><g fill="#000000" fill-opacity="1"><g transform="translate(253.642442, 259.68399)"><g><path d="M 0.78125 5.765625 C -2.09375 5.765625 -3.53125 4.5 -3.53125 1.96875 C -3.53125 -0.21875 -2.546875 -3.097656 -0.578125 -6.671875 C 1.378906 -10.253906 3.992188 -14.179688 7.265625 -18.453125 C 10.535156 -22.734375 14.222656 -27.140625 18.328125 -31.671875 C 22.429688 -36.210938 26.640625 -40.597656 30.953125 -44.828125 C 35.273438 -49.066406 39.398438 -52.863281 43.328125 -56.21875 C 47.253906 -59.582031 50.765625 -62.242188 53.859375 -64.203125 C 56.960938 -66.171875 59.300781 -67.15625 60.875 -67.15625 C 62.789062 -67.15625 63.75 -66.28125 63.75 -64.53125 C 63.75 -63.3125 62.765625 -61.414062 60.796875 -58.84375 C 58.835938 -56.269531 56.195312 -53.28125 52.875 -49.875 C 49.5625 -46.46875 45.789062 -42.890625 41.5625 -39.140625 C 37.332031 -35.390625 32.925781 -31.660156 28.34375 -27.953125 C 23.757812 -24.242188 19.265625 -20.796875 14.859375 -17.609375 C 10.453125 -14.421875 6.375 -11.691406 2.625 -9.421875 C -0.519531 -4.535156 -2.09375 -0.738281 -2.09375 1.96875 C -2.09375 2.832031 -1.894531 3.4375 -1.5 3.78125 C -1.113281 4.132812 -0.351562 4.3125 0.78125 4.3125 C 2.175781 4.3125 4.46875 3.613281 7.65625 2.21875 C 10.84375 0.820312 14.484375 -1.050781 18.578125 -3.40625 C 22.679688 -5.757812 26.785156 -8.378906 30.890625 -11.265625 C 30.984375 -11.347656 31.160156 -11.390625 31.421875 -11.390625 C 31.859375 -11.390625 32.078125 -11.128906 32.078125 -10.609375 C 32.078125 -10.429688 31.988281 -10.253906 31.8125 -10.078125 C 28.144531 -7.546875 24.21875 -5.054688 20.03125 -2.609375 C 15.84375 -0.171875 12.023438 1.832031 8.578125 3.40625 C 5.128906 4.976562 2.53125 5.765625 0.78125 5.765625 Z M 4.578125 -12.3125 C 9.203125 -15.269531 14.15625 -18.753906 19.4375 -22.765625 C 24.71875 -26.785156 29.890625 -30.957031 34.953125 -35.28125 C 40.015625 -39.601562 44.59375 -43.75 48.6875 -47.71875 C 52.789062 -51.6875 56.085938 -55.175781 58.578125 -58.1875 C 61.066406 -61.195312 62.3125 -63.3125 62.3125 -64.53125 C 62.3125 -65.320312 61.832031 -65.71875 60.875 -65.71875 C 59.21875 -65.71875 56.707031 -64.5625 53.34375 -62.25 C 49.976562 -59.9375 46.113281 -56.859375 41.75 -53.015625 C 37.394531 -49.171875 32.90625 -44.914062 28.28125 -40.25 C 23.65625 -35.582031 19.269531 -30.828125 15.125 -25.984375 C 10.976562 -21.140625 7.460938 -16.582031 4.578125 -12.3125 Z M 4.578125 -12.3125 "/></g></g></g><g clip-path="url(#7b11aad6a3)"><path fill="#000000" d="M 221.863281 83.328125 C 221.628906 83.222656 221.390625 83.128906 221.152344 83.035156 C 220.804688 82.105469 220.359375 81.171875 219.8125 80.21875 C 218.574219 78.058594 216.917969 76.335938 215.027344 75.25 C 212.921875 74.039062 210.351562 73.492188 207.585938 73.671875 C 204.035156 73.902344 201.847656 75.230469 199.730469 76.503906 C 196.738281 78.3125 193.910156 80.023438 187.3125 78.796875 C 182.648438 77.925781 180.128906 76.925781 178.105469 76.128906 C 175.183594 74.976562 173.253906 74.214844 167.574219 75.027344 C 160.320312 76.070312 158.414062 80.785156 158.335938 80.984375 C 158.242188 81.230469 158.363281 81.511719 158.609375 81.613281 C 158.855469 81.707031 159.132812 81.585938 159.234375 81.339844 C 159.308594 81.160156 161.039062 76.945312 167.707031 75.992188 C 173.140625 75.214844 174.871094 75.898438 177.753906 77.039062 C 179.816406 77.855469 182.386719 78.867188 187.140625 79.757812 C 194.105469 81.050781 197.21875 79.167969 200.234375 77.347656 C 202.34375 76.070312 204.34375 74.863281 207.652344 74.648438 C 210.234375 74.480469 212.617188 74.980469 214.546875 76.097656 C 216.292969 77.105469 217.824219 78.703125 218.980469 80.710938 C 219.367188 81.378906 219.691406 82.035156 219.972656 82.6875 C 217.261719 82.035156 213.976562 82.265625 210.171875 83.390625 C 205.734375 84.699219 202.027344 84.976562 194.070312 82.847656 C 186.449219 80.8125 180.417969 81.5 172.542969 85.296875 C 167.808594 87.582031 164.738281 86.152344 162.277344 85 C 161.019531 84.410156 159.933594 83.902344 158.800781 83.902344 C 157.050781 83.902344 154.183594 84.859375 151.851562 87.535156 C 149.480469 90.238281 146.980469 95.589844 148.378906 105.710938 C 150.988281 124.609375 159.761719 130.390625 168 133.550781 C 175.464844 136.414062 180.324219 134.238281 184.617188 132.3125 C 186.109375 131.644531 187.511719 131.019531 188.964844 130.609375 C 192.167969 129.710938 195.195312 130.699219 198.402344 131.734375 C 201.691406 132.800781 205.414062 134.003906 209.839844 133.316406 C 211.417969 133.070312 212.902344 132.355469 214.253906 131.324219 C 214.300781 131.519531 214.347656 131.714844 214.402344 131.894531 C 214.675781 132.835938 215 133.898438 215.351562 135.058594 C 217.4375 141.871094 220.59375 152.164062 220.816406 162.457031 C 221.003906 170.808594 217.800781 188.003906 213.402344 197.664062 C 209.679688 205.832031 204.523438 211.996094 202.039062 212.628906 C 201.699219 212.714844 201.441406 212.6875 201.253906 212.550781 C 200.421875 211.921875 201.09375 208.316406 201.8125 204.496094 C 202.664062 199.933594 203.730469 194.261719 203.597656 188.429688 C 203.511719 184.738281 202.832031 180.910156 201.839844 177.164062 C 203.871094 173.273438 205.46875 169.292969 206.007812 164.8125 C 207.359375 153.6875 202.816406 146.109375 197.632812 144.378906 C 195.78125 143.757812 194.136719 144.097656 193 145.339844 C 191.007812 147.511719 191.015625 151.933594 193.011719 156.605469 C 193.34375 157.378906 193.703125 158.207031 194.082031 159.089844 C 196.195312 163.9375 198.996094 170.363281 200.808594 177.050781 C 199.734375 179.089844 198.542969 181.105469 197.332031 183.160156 C 195.214844 186.746094 193.03125 190.453125 191.402344 194.445312 C 190.300781 197.136719 188.011719 202.738281 187.265625 202.878906 C 187.074219 202.8125 186.703125 202.066406 186.433594 201.519531 L 186.382812 201.40625 C 185.703125 200.042969 185.769531 195.960938 185.847656 191.234375 C 185.914062 187.128906 185.996094 182.46875 185.628906 178.160156 C 185.097656 171.949219 183.046875 166.28125 181.003906 161.472656 L 181.28125 160.933594 C 181.515625 160.484375 181.75 160.03125 181.988281 159.585938 C 185.621094 152.613281 189.738281 144.714844 184.046875 141.449219 C 182.992188 140.847656 181.90625 140.722656 180.917969 141.082031 C 179.605469 141.5625 178.472656 142.871094 177.800781 144.6875 C 175.625 150.570312 177.476562 155.746094 179.738281 160.972656 C 179.804688 161.125 179.871094 161.285156 179.9375 161.441406 C 175.945312 169.144531 169.398438 181.898438 170.179688 194.921875 C 170.746094 204.375 171.082031 210.085938 169.699219 211.132812 C 169.484375 211.292969 169.101562 211.460938 168.140625 211.121094 C 164.40625 209.785156 159.242188 201.636719 156.113281 186.449219 C 152.628906 169.558594 154.046875 160.671875 156.105469 153.574219 L 156.246094 153.09375 C 158.582031 145.015625 160.132812 139.679688 157.695312 133.714844 C 157.597656 133.46875 157.316406 133.347656 157.0625 133.449219 C 156.816406 133.550781 156.699219 133.835938 156.796875 134.082031 C 159.101562 139.734375 157.597656 144.941406 155.3125 152.828125 L 155.171875 153.308594 C 153.082031 160.519531 151.640625 169.554688 155.167969 186.648438 C 158.375 202.207031 163.835938 210.605469 167.820312 212.035156 C 168.867188 212.410156 169.671875 212.367188 170.285156 211.90625 C 172.089844 210.546875 171.796875 205.632812 171.152344 194.859375 C 170.410156 182.488281 176.46875 170.269531 180.429688 162.597656 C 182.335938 167.167969 184.179688 172.484375 184.671875 178.246094 C 185.035156 182.5 184.957031 187.136719 184.890625 191.222656 C 184.804688 196.277344 184.738281 200.261719 185.523438 201.839844 L 185.578125 201.953125 C 186.128906 203.066406 186.519531 203.867188 187.292969 203.847656 C 188.292969 203.808594 189.15625 202.5 192.300781 194.8125 C 193.902344 190.886719 196.074219 187.207031 198.171875 183.65625 C 199.210938 181.898438 200.226562 180.171875 201.171875 178.433594 C 202.003906 181.785156 202.566406 185.179688 202.636719 188.457031 C 202.769531 194.1875 201.71875 199.800781 200.875 204.324219 C 199.933594 209.324219 199.371094 212.34375 200.6875 213.332031 C 200.902344 213.492188 201.234375 213.652344 201.699219 213.652344 C 201.878906 213.652344 202.070312 213.628906 202.292969 213.570312 C 205.425781 212.769531 210.699219 205.957031 214.300781 198.074219 C 218.828125 188.144531 221.996094 171.070312 221.804688 162.441406 C 221.570312 152.027344 218.394531 141.648438 216.292969 134.785156 C 215.9375 133.628906 215.613281 132.574219 215.339844 131.632812 C 215.246094 131.320312 215.171875 130.984375 215.113281 130.636719 C 218.027344 128.039062 220.234375 124.027344 221.332031 120.355469 C 222.410156 116.753906 222.324219 113.945312 221.105469 112.835938 C 220.503906 112.289062 219.78125 112.234375 219.054688 112.6875 C 216.273438 114.433594 213.328125 124.234375 214.082031 130.257812 C 212.75 131.351562 211.273438 132.113281 209.699219 132.359375 C 205.5 133.023438 202.050781 131.898438 198.710938 130.816406 C 195.363281 129.730469 192.191406 128.707031 188.710938 129.683594 C 187.1875 130.109375 185.75 130.757812 184.230469 131.4375 C 179.910156 133.375 175.445312 135.378906 168.355469 132.660156 C 160.367188 129.589844 151.871094 123.980469 149.328125 105.578125 C 147.984375 95.816406 150.339844 90.722656 152.558594 88.171875 C 154.820312 85.566406 157.535156 84.871094 158.78125 84.871094 C 159.699219 84.871094 160.699219 85.339844 161.851562 85.871094 C 164.359375 87.046875 167.800781 88.652344 172.949219 86.167969 C 180.691406 82.425781 186.347656 81.78125 193.8125 83.777344 C 201.984375 85.964844 205.828125 85.671875 210.441406 84.308594 C 214.402344 83.140625 217.742188 82.976562 220.398438 83.804688 C 221.9375 88.324219 221.152344 92.785156 219.234375 98.765625 C 219.074219 99.273438 218.882812 99.796875 218.675781 100.347656 C 217.882812 102.5 216.992188 104.9375 217.644531 107.292969 C 218.164062 109.164062 219.347656 109.597656 220.007812 109.691406 C 221.691406 109.925781 223.609375 108.570312 224.484375 107.128906 C 225.078125 106.152344 225.570312 104.996094 225.992188 103.609375 C 228.261719 96.144531 228.539062 86.347656 221.863281 83.328125 Z M 178.679688 145.027344 C 179.246094 143.503906 180.191406 142.371094 181.222656 141.996094 C 181.488281 141.894531 181.761719 141.847656 182.042969 141.847656 C 182.527344 141.847656 183.035156 141.996094 183.546875 142.289062 C 188.433594 145.09375 184.710938 152.234375 181.117188 159.128906 C 180.910156 159.53125 180.695312 159.929688 180.496094 160.324219 C 178.28125 155.203125 176.664062 150.488281 178.679688 145.027344 Z M 194.960938 158.695312 C 194.582031 157.820312 194.21875 156.992188 193.890625 156.21875 C 191.792969 151.304688 192.28125 147.539062 193.703125 145.996094 C 194.285156 145.367188 195.023438 145.046875 195.894531 145.046875 C 196.339844 145.046875 196.820312 145.132812 197.324219 145.300781 C 202.140625 146.910156 206.339844 154.089844 205.046875 164.699219 C 204.5625 168.671875 203.210938 172.269531 201.460938 175.785156 C 199.621094 169.394531 196.980469 163.332031 194.960938 158.695312 Z M 219.554688 113.503906 C 219.734375 113.390625 219.878906 113.351562 220.007812 113.351562 C 220.1875 113.351562 220.320312 113.4375 220.4375 113.550781 C 221.332031 114.367188 221.3125 116.984375 220.390625 120.074219 C 219.398438 123.394531 217.476562 127 214.960938 129.460938 C 214.519531 123.632812 217.390625 114.859375 219.554688 113.503906 Z M 225.066406 103.335938 C 224.664062 104.644531 224.207031 105.726562 223.660156 106.625 C 222.863281 107.949219 221.277344 108.890625 220.140625 108.734375 C 219.386719 108.628906 218.859375 108.0625 218.574219 107.039062 C 218.003906 104.984375 218.800781 102.800781 219.578125 100.691406 C 219.785156 100.128906 219.984375 99.59375 220.152344 99.066406 C 222.03125 93.203125 222.855469 88.738281 221.558594 84.257812 C 229.480469 87.949219 225.542969 101.765625 225.066406 103.335938 Z M 225.066406 103.335938 " fill-opacity="1" fill-rule="nonzero"/></g><g fill="#000000" fill-opacity="1"><g transform="translate(146.316007, 277.064619)"><g><path d="M 4.796875 0.109375 C 2.023438 0.109375 0.640625 -1.378906 0.640625 -4.359375 C 0.640625 -6.773438 1.570312 -8.210938 3.4375 -8.671875 C 3.832031 -8.765625 4.257812 -8.8125 4.71875 -8.8125 C 5.582031 -8.8125 6.4375 -8.644531 7.28125 -8.3125 L 6.984375 -7.46875 C 6.203125 -7.78125 5.515625 -7.9375 4.921875 -7.9375 C 4.328125 -7.9375 3.835938 -7.875 3.453125 -7.75 C 3.066406 -7.632812 2.738281 -7.429688 2.46875 -7.140625 C 1.945312 -6.578125 1.675781 -5.648438 1.65625 -4.359375 C 1.675781 -3.160156 1.925781 -2.273438 2.40625 -1.703125 C 2.925781 -1.085938 3.726562 -0.78125 4.8125 -0.78125 C 5.5625 -0.78125 6.359375 -0.953125 7.203125 -1.296875 L 7.5 -0.453125 C 6.613281 -0.078125 5.710938 0.109375 4.796875 0.109375 Z M 4.796875 0.109375 "/></g></g></g><g fill="#000000" fill-opacity="1"><g transform="translate(163.200375, 277.064619)"><g><path d="M 0.9375 0 L 0.9375 -8.734375 L 1.921875 -8.734375 L 1.921875 -0.90625 L 5.921875 -0.90625 L 5.890625 0 Z M 0.9375 0 "/></g></g></g><g fill="#000000" fill-opacity="1"><g transform="translate(179.135595, 277.064619)"><g><path d="M 0.953125 -8.734375 L 1.921875 -8.734375 L 1.921875 0 L 0.953125 0 Z M 0.953125 -8.734375 "/></g></g></g><g fill="#000000" fill-opacity="1"><g transform="translate(191.229296, 277.064619)"><g><path d="M 0.921875 -8.734375 L 2.375 -8.734375 L 6.046875 -2.28125 L 6.734375 -0.921875 L 6.734375 -8.734375 L 7.703125 -8.734375 L 7.703125 0 L 6.28125 0 L 2.578125 -6.484375 L 1.90625 -7.8125 L 1.90625 0 L 0.921875 0 Z M 0.921875 -8.734375 "/></g></g></g><g fill="#000000" fill-opacity="1"><g transform="translate(209.068426, 277.064619)"><g><path d="M 0.953125 -8.734375 L 1.921875 -8.734375 L 1.921875 0 L 0.953125 0 Z M 0.953125 -8.734375 "/></g></g></g><g fill="#000000" fill-opacity="1"><g transform="translate(221.162127, 277.064619)"><g><path d="M 4.796875 0.109375 C 2.023438 0.109375 0.640625 -1.378906 0.640625 -4.359375 C 0.640625 -6.773438 1.570312 -8.210938 3.4375 -8.671875 C 3.832031 -8.765625 4.257812 -8.8125 4.71875 -8.8125 C 5.582031 -8.8125 6.4375 -8.644531 7.28125 -8.3125 L 6.984375 -7.46875 C 6.203125 -7.78125 5.515625 -7.9375 4.921875 -7.9375 C 4.328125 -7.9375 3.835938 -7.875 3.453125 -7.75 C 3.066406 -7.632812 2.738281 -7.429688 2.46875 -7.140625 C 1.945312 -6.578125 1.675781 -5.648438 1.65625 -4.359375 C 1.675781 -3.160156 1.925781 -2.273438 2.40625 -1.703125 C 2.925781 -1.085938 3.726562 -0.78125 4.8125 -0.78125 C 5.5625 -0.78125 6.359375 -0.953125 7.203125 -1.296875 L 7.5 -0.453125 C 6.613281 -0.078125 5.710938 0.109375 4.796875 0.109375 Z M 4.796875 0.109375 "/></g></g></g></svg>